<!DOCTYPE svg PUBLIC "-//W3C//DTD SVG 1.1//EN" "http://www.w3.org/Graphics/SVG/1.1/DTD/svg11.dtd">
<!-- Uploaded to: SVG Repo, www.svgrepo.com, Transformed by: SVG Repo Mixer Tools -->
<svg width="800px" height="800px" viewBox="0 0 64 64" version="1.1" xmlns="http://www.w3.org/2000/svg" xmlns:xlink="http://www.w3.org/1999/xlink" fill="#000000">
<g id="SVGRepo_bgCarrier" stroke-width="0"/>
<g id="SVGRepo_tracerCarrier" stroke-linecap="round" stroke-linejoin="round"/>
<g id="SVGRepo_iconCarrier"> <title>gen-jewel</title> <desc>Created with Sketch.</desc> <defs> </defs> <g id="General" stroke="none" stroke-width="1" fill="none" fill-rule="evenodd"> <g id="SLICES-64px" transform="translate(-270.000000, 0.000000)"> </g> <g id="ICONS" transform="translate(-265.000000, 5.000000)"> <g id="gen-jewel" transform="translate(270.000000, 4.000000)"> <polygon id="Fill-204" fill="#d1d5db" points="0.0001 14 14.0001 14 14.0001 0"> </polygon> <polygon id="Fill-205" fill="#d1d5db" points="27.0001 0 14.0001 14 40.0001 14"> </polygon> <polygon id="Fill-206" fill-opacity="0.25" fill="#6C6984" points="27.0001 0 14.0001 14 40.0001 14"> </polygon> <polygon id="Fill-207" fill="#d1d5db" points="40.0001 0 40.0001 14 54.0001 14"> </polygon> <polygon id="Fill-208" fill="#d1d5db" points="14.0001 14 40.0001 14 27.0001 50"> </polygon> <polygon id="Fill-209" fill="#d1d5db" points="14.0001 0 27.0001 0 14.0001 14"> </polygon> <polygon id="Fill-210" fill="#d1d5db" points="40.0001 0 40.0001 14 27.0001 0"> </polygon> <polygon id="Fill-211" fill="#d1d5db" points="27.0001 50 54.0001 14 40.0001 14"> </polygon> <polygon id="Fill-212" fill-opacity="0.25" fill="#6C6984" points="40.0001 0 40.0001 14 54.0001 14"> </polygon> <polygon id="Fill-213" fill-opacity="0.25" fill="#6C6984" points="27.0001 50 54.0001 14 40.0001 14"> </polygon> <polygon id="Fill-214" fill="#d1d5db" points="0.0001 14 27.0001 50 14.0001 14"> </polygon> <polygon id="Stroke-215" stroke="#111827" stroke-width="2" stroke-linecap="round" stroke-linejoin="round" points="0.0001 14 14.0001 0 40.0001 0 54.0001 14 27.0001 50"> </polygon> <path d="M0.0001,14 L54.0001,14" id="Stroke-216" stroke="#111827" stroke-width="2" stroke-linecap="round" stroke-linejoin="round"> </path> <polyline id="Stroke-217" stroke="#111827" stroke-width="2" stroke-linecap="round" stroke-linejoin="round" points="14.0001 0 14.0001 14 27.0001 50 40.0001 14 40.0001 0"> </polyline> <polyline id="Stroke-218" stroke="#111827" stroke-width="2" stroke-linecap="round" stroke-linejoin="round" points="14.0001 14 27.0001 0 40.0001 14"> </polyline> </g> </g> </g> </g>
</svg>